<svg xmlns:xlink="http://www.w3.org/1999/xlink" xmlns="http://www.w3.org/2000/svg" version="1.1" width="29px" height="30px" data-arp-injected="true">
  <g transform="matrix(1 0 0 1 -152 -837 )">
    <path d="M 28.9147058823529 15  C 28.9147058823529 6.76344992897727  22.2313120404412 0.0852272727272727  13.9874356617647 0.0852272727272727  C 7.6226953125 0.0852272727272727  2.18926011029412 4.06720525568182  0.0431135110294116 9.67329545454546  L 2.35131893382353 9.67329545454546  C 2.97743106617647 8.30939275568182  3.84776424632353 7.05322265625  4.941328125 5.96044921875  C 7.35775045955882 3.54578746448864  10.5704067095588 2.21590909090909  13.9874356617647 2.21590909090909  C 17.4049310661765 2.21590909090909  20.6179871323529 3.54578746448864  23.0346760110294 5.96051580255682  C 25.4514315257353 8.375244140625  26.7823529411765 11.5855158025568  26.7823529411765 15  C 26.7823529411765 18.4147505326705  25.4514315257353 21.6251553622159  23.0348092830882 24.0397505326705  C 20.6181204044118 26.454345703125  17.4049977022059 27.7840909090909  13.9874356617647 27.7840909090909  C 10.5702734375 27.7840909090909  7.3576171875 26.454345703125  4.94126148897059 24.0398171164773  C 3.84763097426471 22.9470436789773  2.97729779411765 21.6907404119318  2.35105238970588 20.3267045454545  L 0.0429802389705882 20.3267045454545  C 2.18906020220588 25.9331276633523  7.62256204044118 29.9147727272727  13.9875022977941 29.9147727272727  C 22.2313120404412 29.9147727272727  28.9147058823529 23.2374156605114  28.9147058823529 15  Z " fill-rule="nonzero" fill="#ffffff" stroke="none" transform="matrix(1 0 0 1 152 837 )"/>
  </g>
</svg>